<svg xmlns="http://www.w3.org/2000/svg" viewBox="0 0 512 512" width="512" height="512">
  <defs>
    <linearGradient id="bg" x1="0" y1="0" x2="1" y2="1">
      <stop offset="0" stop-color="#667eea"/>
      <stop offset="1" stop-color="#764ba2"/>
    </linearGradient>
  </defs>
  <rect width="512" height="512" rx="112" fill="url(#bg)"/>
  <g fill="#ffffff">
    <path d="M136 286l22-66c6-18 23-30 42-30h112c19 0 36 12 42 30l22 66v92c0 9-7 16-16 16h-24c-9 0-16-7-16-16v-16H192v16c0 9-7 16-16 16h-24c-9 0-16-7-16-16z"/>
    <rect x="120" y="276" width="272" height="40" rx="20" fill="#ffffff"/>
  </g>
  <g fill="#4f46e5">
    <circle cx="192" cy="346" r="20"/>
    <circle cx="320" cy="346" r="20"/>
  </g>
  <path d="M176 276l18-54c4-11 14-18 26-18h72c12 0 22 7 26 18l18 54z" fill="#c7d2fe"/>
</svg>
